<mxfile host="app.diagrams.net" agent="Mozilla/5.0 (Windows NT 10.0; Win64; x64) AppleWebKit/537.36 (KHTML, like Gecko) Chrome/133.0.0.0 Safari/537.36" version="26.0.14">
  <diagram name="PÃ¡gina-1" id="UeyDWp3atbMxSJS5Hcny">
    <mxGraphModel dx="2261" dy="1907" grid="1" gridSize="10" guides="1" tooltips="1" connect="1" arrows="1" fold="1" page="1" pageScale="1" pageWidth="827" pageHeight="1169" math="0" shadow="0">
      <root>
        <mxCell id="0" />
        <mxCell id="1" parent="0" />
        <mxCell id="W8wxUIG6hcebt33dwh8t-103" value="Public subnet" style="points=[[0,0],[0.25,0],[0.5,0],[0.75,0],[1,0],[1,0.25],[1,0.5],[1,0.75],[1,1],[0.75,1],[0.5,1],[0.25,1],[0,1],[0,0.75],[0,0.5],[0,0.25]];outlineConnect=0;gradientColor=none;html=1;whiteSpace=wrap;fontSize=12;fontStyle=0;container=0;pointerEvents=0;collapsible=0;recursiveResize=0;shape=mxgraph.aws4.group;grIcon=mxgraph.aws4.group_security_group;grStroke=0;strokeColor=#7AA116;fillColor=#F2F6E8;verticalAlign=top;align=left;spacingLeft=30;fontColor=#248814;dashed=0;movable=1;resizable=1;rotatable=1;deletable=1;editable=1;locked=0;connectable=1;" parent="1" vertex="1">
          <mxGeometry x="35" y="364.5" width="160" height="160" as="geometry" />
        </mxCell>
        <mxCell id="W8wxUIG6hcebt33dwh8t-148" value="Aviability Zone 2" style="fillColor=none;strokeColor=#147EBA;dashed=1;verticalAlign=top;fontStyle=0;fontColor=#147EBA;whiteSpace=wrap;html=1;" parent="1" vertex="1">
          <mxGeometry x="10" y="300" width="225" height="960" as="geometry" />
        </mxCell>
        <mxCell id="W8wxUIG6hcebt33dwh8t-147" value="Aviability Zone 1" style="fillColor=none;strokeColor=#147EBA;dashed=1;verticalAlign=top;fontStyle=0;fontColor=#147EBA;whiteSpace=wrap;html=1;" parent="1" vertex="1">
          <mxGeometry x="-413" y="300" width="225" height="960" as="geometry" />
        </mxCell>
        <mxCell id="W8wxUIG6hcebt33dwh8t-63" value="Public subnet" style="points=[[0,0],[0.25,0],[0.5,0],[0.75,0],[1,0],[1,0.25],[1,0.5],[1,0.75],[1,1],[0.75,1],[0.5,1],[0.25,1],[0,1],[0,0.75],[0,0.5],[0,0.25]];outlineConnect=0;gradientColor=none;html=1;whiteSpace=wrap;fontSize=12;fontStyle=0;container=0;pointerEvents=0;collapsible=0;recursiveResize=0;shape=mxgraph.aws4.group;grIcon=mxgraph.aws4.group_security_group;grStroke=0;strokeColor=#7AA116;fillColor=#F2F6E8;verticalAlign=top;align=left;spacingLeft=30;fontColor=#248814;dashed=0;" parent="1" vertex="1">
          <mxGeometry x="-375" y="364.5" width="160" height="160" as="geometry" />
        </mxCell>
        <mxCell id="W8wxUIG6hcebt33dwh8t-146" style="edgeStyle=orthogonalEdgeStyle;rounded=0;orthogonalLoop=1;jettySize=auto;html=1;entryX=0.5;entryY=1;entryDx=0;entryDy=0;entryPerimeter=0;" parent="1" source="W8wxUIG6hcebt33dwh8t-104" target="W8wxUIG6hcebt33dwh8t-142" edge="1">
          <mxGeometry relative="1" as="geometry" />
        </mxCell>
        <mxCell id="W8wxUIG6hcebt33dwh8t-137" value="AWS Account" style="points=[[0,0],[0.25,0],[0.5,0],[0.75,0],[1,0],[1,0.25],[1,0.5],[1,0.75],[1,1],[0.75,1],[0.5,1],[0.25,1],[0,1],[0,0.75],[0,0.5],[0,0.25]];outlineConnect=0;gradientColor=none;html=1;whiteSpace=wrap;fontSize=12;fontStyle=0;container=0;pointerEvents=0;collapsible=0;recursiveResize=0;shape=mxgraph.aws4.group;grIcon=mxgraph.aws4.group_aws_cloud_alt;strokeColor=#232F3E;fillColor=none;verticalAlign=top;align=left;spacingLeft=30;fontColor=#232F3E;dashed=0;" parent="1" vertex="1">
          <mxGeometry x="-580" y="-100" width="2650" height="1900" as="geometry" />
        </mxCell>
        <mxCell id="W8wxUIG6hcebt33dwh8t-102" value="Private Subnet APP" style="points=[[0,0],[0.25,0],[0.5,0],[0.75,0],[1,0],[1,0.25],[1,0.5],[1,0.75],[1,1],[0.75,1],[0.5,1],[0.25,1],[0,1],[0,0.75],[0,0.5],[0,0.25]];outlineConnect=0;gradientColor=none;html=1;whiteSpace=wrap;fontSize=12;fontStyle=0;container=0;pointerEvents=0;collapsible=0;recursiveResize=0;shape=mxgraph.aws4.group;grIcon=mxgraph.aws4.group_security_group;grStroke=0;strokeColor=#00A4A6;fillColor=#E6F6F7;verticalAlign=top;align=left;spacingLeft=30;fontColor=#147EBA;dashed=0;movable=1;resizable=1;rotatable=1;deletable=1;editable=1;locked=0;connectable=1;" parent="1" vertex="1">
          <mxGeometry x="30" y="540" width="170" height="700" as="geometry" />
        </mxCell>
        <mxCell id="W8wxUIG6hcebt33dwh8t-8" style="edgeStyle=orthogonalEdgeStyle;rounded=0;orthogonalLoop=1;jettySize=auto;html=1;" parent="1" source="W8wxUIG6hcebt33dwh8t-2" target="W8wxUIG6hcebt33dwh8t-4" edge="1">
          <mxGeometry relative="1" as="geometry">
            <Array as="points">
              <mxPoint x="866" y="555.5" />
            </Array>
          </mxGeometry>
        </mxCell>
        <mxCell id="W8wxUIG6hcebt33dwh8t-9" style="edgeStyle=orthogonalEdgeStyle;rounded=0;orthogonalLoop=1;jettySize=auto;html=1;" parent="1" source="W8wxUIG6hcebt33dwh8t-2" target="W8wxUIG6hcebt33dwh8t-5" edge="1">
          <mxGeometry relative="1" as="geometry" />
        </mxCell>
        <mxCell id="W8wxUIG6hcebt33dwh8t-10" style="edgeStyle=orthogonalEdgeStyle;rounded=0;orthogonalLoop=1;jettySize=auto;html=1;" parent="1" source="W8wxUIG6hcebt33dwh8t-2" target="W8wxUIG6hcebt33dwh8t-6" edge="1">
          <mxGeometry relative="1" as="geometry">
            <Array as="points">
              <mxPoint x="866" y="894.5" />
            </Array>
          </mxGeometry>
        </mxCell>
        <mxCell id="W8wxUIG6hcebt33dwh8t-2" value="SNS" style="sketch=0;points=[[0,0,0],[0.25,0,0],[0.5,0,0],[0.75,0,0],[1,0,0],[0,1,0],[0.25,1,0],[0.5,1,0],[0.75,1,0],[1,1,0],[0,0.25,0],[0,0.5,0],[0,0.75,0],[1,0.25,0],[1,0.5,0],[1,0.75,0]];outlineConnect=0;fontColor=#232F3E;fillColor=#E7157B;strokeColor=#ffffff;dashed=0;verticalLabelPosition=bottom;verticalAlign=top;align=center;html=1;fontSize=12;fontStyle=0;aspect=fixed;shape=mxgraph.aws4.resourceIcon;resIcon=mxgraph.aws4.sns;" parent="1" vertex="1">
          <mxGeometry x="827" y="655.5" width="78" height="78" as="geometry" />
        </mxCell>
        <mxCell id="W8wxUIG6hcebt33dwh8t-18" style="edgeStyle=orthogonalEdgeStyle;rounded=0;orthogonalLoop=1;jettySize=auto;html=1;" parent="1" source="W8wxUIG6hcebt33dwh8t-4" target="W8wxUIG6hcebt33dwh8t-13" edge="1">
          <mxGeometry relative="1" as="geometry" />
        </mxCell>
        <mxCell id="W8wxUIG6hcebt33dwh8t-4" value="Order Recived" style="sketch=0;outlineConnect=0;fontColor=#232F3E;gradientColor=none;fillColor=#E7157B;strokeColor=none;dashed=0;verticalLabelPosition=bottom;verticalAlign=top;align=center;html=1;fontSize=12;fontStyle=0;aspect=fixed;pointerEvents=1;shape=mxgraph.aws4.topic;" parent="1" vertex="1">
          <mxGeometry x="1001" y="515.5" width="78" height="67" as="geometry" />
        </mxCell>
        <mxCell id="W8wxUIG6hcebt33dwh8t-17" style="edgeStyle=orthogonalEdgeStyle;rounded=0;orthogonalLoop=1;jettySize=auto;html=1;" parent="1" source="W8wxUIG6hcebt33dwh8t-5" target="W8wxUIG6hcebt33dwh8t-14" edge="1">
          <mxGeometry relative="1" as="geometry" />
        </mxCell>
        <mxCell id="W8wxUIG6hcebt33dwh8t-5" value="Order Paided" style="sketch=0;outlineConnect=0;fontColor=#232F3E;gradientColor=none;fillColor=#E7157B;strokeColor=none;dashed=0;verticalLabelPosition=bottom;verticalAlign=top;align=center;html=1;fontSize=12;fontStyle=0;aspect=fixed;pointerEvents=1;shape=mxgraph.aws4.topic;" parent="1" vertex="1">
          <mxGeometry x="1001" y="661" width="78" height="67" as="geometry" />
        </mxCell>
        <mxCell id="W8wxUIG6hcebt33dwh8t-16" style="edgeStyle=orthogonalEdgeStyle;rounded=0;orthogonalLoop=1;jettySize=auto;html=1;" parent="1" source="W8wxUIG6hcebt33dwh8t-6" target="W8wxUIG6hcebt33dwh8t-15" edge="1">
          <mxGeometry relative="1" as="geometry" />
        </mxCell>
        <mxCell id="W8wxUIG6hcebt33dwh8t-6" value="Order Shipped" style="sketch=0;outlineConnect=0;fontColor=#232F3E;gradientColor=none;fillColor=#E7157B;strokeColor=none;dashed=0;verticalLabelPosition=bottom;verticalAlign=top;align=center;html=1;fontSize=12;fontStyle=0;aspect=fixed;pointerEvents=1;shape=mxgraph.aws4.topic;" parent="1" vertex="1">
          <mxGeometry x="1001" y="861" width="78" height="67" as="geometry" />
        </mxCell>
        <mxCell id="W8wxUIG6hcebt33dwh8t-34" value="Cross Region Replacation Rule" style="edgeStyle=orthogonalEdgeStyle;rounded=0;orthogonalLoop=1;jettySize=auto;html=1;" parent="1" source="W8wxUIG6hcebt33dwh8t-11" target="W8wxUIG6hcebt33dwh8t-33" edge="1">
          <mxGeometry relative="1" as="geometry">
            <mxPoint as="offset" />
          </mxGeometry>
        </mxCell>
        <mxCell id="W8wxUIG6hcebt33dwh8t-11" value="email-registry-bucket-&amp;lt;ENV&amp;gt;-&amp;lt;region1&amp;gt; (POLICY 1)" style="sketch=0;points=[[0,0,0],[0.25,0,0],[0.5,0,0],[0.75,0,0],[1,0,0],[0,1,0],[0.25,1,0],[0.5,1,0],[0.75,1,0],[1,1,0],[0,0.25,0],[0,0.5,0],[0,0.75,0],[1,0.25,0],[1,0.5,0],[1,0.75,0]];outlineConnect=0;fontColor=#232F3E;fillColor=#7AA116;strokeColor=#ffffff;dashed=0;verticalLabelPosition=bottom;verticalAlign=top;align=center;html=1;fontSize=12;fontStyle=0;aspect=fixed;shape=mxgraph.aws4.resourceIcon;resIcon=mxgraph.aws4.s3;" parent="1" vertex="1">
          <mxGeometry x="580" y="1004.5" width="78" height="78" as="geometry" />
        </mxCell>
        <mxCell id="W8wxUIG6hcebt33dwh8t-12" value="&lt;h1 style=&quot;margin-top: 0px;&quot;&gt;Politicas de Buckets&lt;/h1&gt;&lt;p&gt;&lt;span style=&quot;background-color: transparent; color: light-dark(rgb(0, 0, 0), rgb(255, 255, 255));&quot;&gt;POLICY 1:&lt;/span&gt;&lt;br&gt;&lt;/p&gt;&lt;p&gt;Encriptacion SSE-KMS&lt;span style=&quot;background-color: transparent; color: light-dark(rgb(0, 0, 0), rgb(255, 255, 255));&quot;&gt;&lt;br&gt;&lt;/span&gt;&lt;/p&gt;&lt;p&gt;Standard 45 Dias,&lt;/p&gt;&lt;p&gt;Glacier Instant Retrieval 180 Dias,&lt;/p&gt;&lt;p&gt;&lt;span style=&quot;background-color: transparent; color: light-dark(rgb(0, 0, 0), rgb(255, 255, 255));&quot;&gt;Glacier Deep Archive 3650 Dias,&lt;/span&gt;&lt;br&gt;&lt;/p&gt;&lt;p&gt;&lt;span style=&quot;background-color: transparent; color: light-dark(rgb(0, 0, 0), rgb(255, 255, 255));&quot;&gt;Delete 3651 Dias.&lt;/span&gt;&lt;/p&gt;&lt;p&gt;&lt;span style=&quot;background-color: transparent; color: light-dark(rgb(0, 0, 0), rgb(255, 255, 255));&quot;&gt;&lt;br&gt;&lt;/span&gt;&lt;/p&gt;&lt;p&gt;POLICY 2:&lt;/p&gt;&lt;p&gt;Encriptacion SSE-KMS&lt;br&gt;&lt;/p&gt;&lt;p&gt;&lt;span style=&quot;background-color: transparent; color: light-dark(rgb(0, 0, 0), rgb(255, 255, 255));&quot;&gt;Glacier Instant Retrieval 180 Dias,&lt;/span&gt;&lt;br&gt;&lt;/p&gt;&lt;p&gt;&lt;span style=&quot;background-color: transparent; color: light-dark(rgb(0, 0, 0), rgb(255, 255, 255));&quot;&gt;Glacier Deep Archive 3650 Dias,&lt;/span&gt;&lt;br&gt;&lt;/p&gt;&lt;p&gt;&lt;span style=&quot;background-color: transparent; color: light-dark(rgb(0, 0, 0), rgb(255, 255, 255));&quot;&gt;Delete 3651 Dias.&lt;/span&gt;&lt;/p&gt;&lt;p&gt;&lt;span style=&quot;background-color: transparent; color: light-dark(rgb(0, 0, 0), rgb(255, 255, 255));&quot;&gt;&lt;br&gt;&lt;/span&gt;&lt;/p&gt;&lt;p&gt;&lt;span style=&quot;background-color: transparent; color: light-dark(rgb(0, 0, 0), rgb(255, 255, 255));&quot;&gt;POLICY 3:&lt;/span&gt;&lt;/p&gt;&lt;p&gt;&lt;span style=&quot;background-color: transparent; color: light-dark(rgb(0, 0, 0), rgb(255, 255, 255));&quot;&gt;&lt;br&gt;&lt;/span&gt;&lt;/p&gt;" style="text;html=1;whiteSpace=wrap;overflow=hidden;rounded=0;" parent="1" vertex="1">
          <mxGeometry x="790" y="1150" width="380" height="600" as="geometry" />
        </mxCell>
        <mxCell id="W8wxUIG6hcebt33dwh8t-37" style="edgeStyle=orthogonalEdgeStyle;rounded=0;orthogonalLoop=1;jettySize=auto;html=1;" parent="1" edge="1">
          <mxGeometry relative="1" as="geometry">
            <mxPoint x="1270" y="588" as="sourcePoint" />
            <mxPoint x="1270" y="1025.5" as="targetPoint" />
          </mxGeometry>
        </mxCell>
        <mxCell id="W8wxUIG6hcebt33dwh8t-13" value="Order Recived Queue" style="sketch=0;points=[[0,0,0],[0.25,0,0],[0.5,0,0],[0.75,0,0],[1,0,0],[0,1,0],[0.25,1,0],[0.5,1,0],[0.75,1,0],[1,1,0],[0,0.25,0],[0,0.5,0],[0,0.75,0],[1,0.25,0],[1,0.5,0],[1,0.75,0]];outlineConnect=0;fontColor=#232F3E;fillColor=#E7157B;strokeColor=#ffffff;dashed=0;verticalLabelPosition=bottom;verticalAlign=top;align=center;html=1;fontSize=12;fontStyle=0;aspect=fixed;shape=mxgraph.aws4.resourceIcon;resIcon=mxgraph.aws4.sqs;" parent="1" vertex="1">
          <mxGeometry x="1211" y="510" width="78" height="78" as="geometry" />
        </mxCell>
        <mxCell id="W8wxUIG6hcebt33dwh8t-38" style="edgeStyle=orthogonalEdgeStyle;rounded=0;orthogonalLoop=1;jettySize=auto;html=1;" parent="1" edge="1">
          <mxGeometry relative="1" as="geometry">
            <mxPoint x="1270" y="733.5" as="sourcePoint" />
            <mxPoint x="1270" y="1025.5" as="targetPoint" />
          </mxGeometry>
        </mxCell>
        <mxCell id="W8wxUIG6hcebt33dwh8t-14" value="Order Paided&amp;nbsp;&amp;nbsp;Queue" style="sketch=0;points=[[0,0,0],[0.25,0,0],[0.5,0,0],[0.75,0,0],[1,0,0],[0,1,0],[0.25,1,0],[0.5,1,0],[0.75,1,0],[1,1,0],[0,0.25,0],[0,0.5,0],[0,0.75,0],[1,0.25,0],[1,0.5,0],[1,0.75,0]];outlineConnect=0;fontColor=#232F3E;fillColor=#E7157B;strokeColor=#ffffff;dashed=0;verticalLabelPosition=bottom;verticalAlign=top;align=center;html=1;fontSize=12;fontStyle=0;aspect=fixed;shape=mxgraph.aws4.resourceIcon;resIcon=mxgraph.aws4.sqs;" parent="1" vertex="1">
          <mxGeometry x="1211" y="655.5" width="78" height="78" as="geometry" />
        </mxCell>
        <mxCell id="W8wxUIG6hcebt33dwh8t-15" value="Order Shipped Queue" style="sketch=0;points=[[0,0,0],[0.25,0,0],[0.5,0,0],[0.75,0,0],[1,0,0],[0,1,0],[0.25,1,0],[0.5,1,0],[0.75,1,0],[1,1,0],[0,0.25,0],[0,0.5,0],[0,0.75,0],[1,0.25,0],[1,0.5,0],[1,0.75,0]];outlineConnect=0;fontColor=#232F3E;fillColor=#E7157B;strokeColor=#ffffff;dashed=0;verticalLabelPosition=bottom;verticalAlign=top;align=center;html=1;fontSize=12;fontStyle=0;aspect=fixed;shape=mxgraph.aws4.resourceIcon;resIcon=mxgraph.aws4.sqs;" parent="1" vertex="1">
          <mxGeometry x="1211" y="855.5" width="78" height="78" as="geometry" />
        </mxCell>
        <mxCell id="W8wxUIG6hcebt33dwh8t-32" value="1.3 Save notification" style="edgeStyle=orthogonalEdgeStyle;rounded=0;orthogonalLoop=1;jettySize=auto;html=1;" parent="1" source="W8wxUIG6hcebt33dwh8t-128" target="yXCmuLq85bu9272WF-M7-2" edge="1">
          <mxGeometry x="0.0844" relative="1" as="geometry">
            <mxPoint x="619" y="783.5" as="sourcePoint" />
            <Array as="points">
              <mxPoint x="290" y="750" />
              <mxPoint x="290" y="339" />
            </Array>
            <mxPoint as="offset" />
          </mxGeometry>
        </mxCell>
        <mxCell id="W8wxUIG6hcebt33dwh8t-151" value="1.3 Send Email to customer" style="edgeStyle=orthogonalEdgeStyle;rounded=0;orthogonalLoop=1;jettySize=auto;html=1;" parent="1" source="W8wxUIG6hcebt33dwh8t-23" target="W8wxUIG6hcebt33dwh8t-45" edge="1">
          <mxGeometry x="-0.9095" relative="1" as="geometry">
            <Array as="points">
              <mxPoint x="1780" y="744" />
              <mxPoint x="1780" y="-210" />
            </Array>
            <mxPoint as="offset" />
          </mxGeometry>
        </mxCell>
        <mxCell id="W8wxUIG6hcebt33dwh8t-23" value="SES" style="sketch=0;points=[[0,0,0],[0.25,0,0],[0.5,0,0],[0.75,0,0],[1,0,0],[0,1,0],[0.25,1,0],[0.5,1,0],[0.75,1,0],[1,1,0],[0,0.25,0],[0,0.5,0],[0,0.75,0],[1,0.25,0],[1,0.5,0],[1,0.75,0]];outlineConnect=0;fontColor=#232F3E;fillColor=#DD344C;strokeColor=#ffffff;dashed=0;verticalLabelPosition=bottom;verticalAlign=top;align=center;html=1;fontSize=12;fontStyle=0;aspect=fixed;shape=mxgraph.aws4.resourceIcon;resIcon=mxgraph.aws4.simple_email_service;" parent="1" vertex="1">
          <mxGeometry x="1614" y="705.5" width="78" height="78" as="geometry" />
        </mxCell>
        <mxCell id="W8wxUIG6hcebt33dwh8t-53" style="edgeStyle=orthogonalEdgeStyle;rounded=0;orthogonalLoop=1;jettySize=auto;html=1;" parent="1" source="W8wxUIG6hcebt33dwh8t-28" target="W8wxUIG6hcebt33dwh8t-52" edge="1">
          <mxGeometry relative="1" as="geometry" />
        </mxCell>
        <mxCell id="vb863O5oUdCs1b9omrCE-2" value="Failover&lt;div&gt;Level REGION&lt;/div&gt;" style="edgeStyle=orthogonalEdgeStyle;rounded=0;orthogonalLoop=1;jettySize=auto;html=1;" parent="1" source="W8wxUIG6hcebt33dwh8t-28" target="W8wxUIG6hcebt33dwh8t-157" edge="1">
          <mxGeometry relative="1" as="geometry">
            <Array as="points">
              <mxPoint x="899" y="120" />
            </Array>
          </mxGeometry>
        </mxCell>
        <mxCell id="W8wxUIG6hcebt33dwh8t-28" value="Hosted Zone&lt;div&gt;(CustomFriendlyDomain)&lt;/div&gt;" style="sketch=0;points=[[0,0,0],[0.25,0,0],[0.5,0,0],[0.75,0,0],[1,0,0],[0,1,0],[0.25,1,0],[0.5,1,0],[0.75,1,0],[1,1,0],[0,0.25,0],[0,0.5,0],[0,0.75,0],[1,0.25,0],[1,0.5,0],[1,0.75,0]];outlineConnect=0;fontColor=#232F3E;fillColor=#8C4FFF;strokeColor=#ffffff;dashed=0;verticalLabelPosition=bottom;verticalAlign=top;align=center;html=1;fontSize=12;fontStyle=0;aspect=fixed;shape=mxgraph.aws4.resourceIcon;resIcon=mxgraph.aws4.route_53;" parent="1" vertex="1">
          <mxGeometry x="860" y="-20" width="78" height="78" as="geometry" />
        </mxCell>
        <mxCell id="W8wxUIG6hcebt33dwh8t-30" value="&lt;h1 style=&quot;margin-top: 0px;&quot;&gt;...&lt;/h1&gt;" style="text;html=1;whiteSpace=wrap;overflow=hidden;rounded=0;rotation=90;" parent="1" vertex="1">
          <mxGeometry x="1131" y="775.5" width="30" height="44.5" as="geometry" />
        </mxCell>
        <mxCell id="W8wxUIG6hcebt33dwh8t-33" value="email-registry-backup-bucket-&amp;lt;ENV&amp;gt;-&amp;lt;region2&amp;gt;&amp;nbsp;(POLICY 2)" style="sketch=0;points=[[0,0,0],[0.25,0,0],[0.5,0,0],[0.75,0,0],[1,0,0],[0,1,0],[0.25,1,0],[0.5,1,0],[0.75,1,0],[1,1,0],[0,0.25,0],[0,0.5,0],[0,0.75,0],[1,0.25,0],[1,0.5,0],[1,0.75,0]];outlineConnect=0;fontColor=#232F3E;fillColor=#7AA116;strokeColor=#ffffff;dashed=0;verticalLabelPosition=bottom;verticalAlign=top;align=center;html=1;fontSize=12;fontStyle=0;aspect=fixed;shape=mxgraph.aws4.resourceIcon;resIcon=mxgraph.aws4.s3;" parent="1" vertex="1">
          <mxGeometry x="580" y="1174.5" width="78" height="78" as="geometry" />
        </mxCell>
        <mxCell id="W8wxUIG6hcebt33dwh8t-35" value="System-DLQ" style="sketch=0;points=[[0,0,0],[0.25,0,0],[0.5,0,0],[0.75,0,0],[1,0,0],[0,1,0],[0.25,1,0],[0.5,1,0],[0.75,1,0],[1,1,0],[0,0.25,0],[0,0.5,0],[0,0.75,0],[1,0.25,0],[1,0.5,0],[1,0.75,0]];outlineConnect=0;fontColor=#232F3E;fillColor=#E7157B;strokeColor=#ffffff;dashed=0;verticalLabelPosition=bottom;verticalAlign=top;align=center;html=1;fontSize=12;fontStyle=0;aspect=fixed;shape=mxgraph.aws4.resourceIcon;resIcon=mxgraph.aws4.sqs;" parent="1" vertex="1">
          <mxGeometry x="1211" y="1025.5" width="78" height="78" as="geometry" />
        </mxCell>
        <mxCell id="W8wxUIG6hcebt33dwh8t-39" value="DLQ after Retrying Policy" style="edgeStyle=orthogonalEdgeStyle;rounded=0;orthogonalLoop=1;jettySize=auto;html=1;entryX=0.5;entryY=0;entryDx=0;entryDy=0;entryPerimeter=0;" parent="1" edge="1">
          <mxGeometry relative="1" as="geometry">
            <mxPoint x="1270" y="933.5" as="sourcePoint" />
            <mxPoint x="1270" y="1025.5" as="targetPoint" />
          </mxGeometry>
        </mxCell>
        <mxCell id="W8wxUIG6hcebt33dwh8t-44" value="Get Content" style="edgeStyle=orthogonalEdgeStyle;rounded=0;orthogonalLoop=1;jettySize=auto;html=1;" parent="1" source="W8wxUIG6hcebt33dwh8t-41" target="W8wxUIG6hcebt33dwh8t-43" edge="1">
          <mxGeometry relative="1" as="geometry" />
        </mxCell>
        <mxCell id="W8wxUIG6hcebt33dwh8t-41" value="Cloud Front" style="sketch=0;points=[[0,0,0],[0.25,0,0],[0.5,0,0],[0.75,0,0],[1,0,0],[0,1,0],[0.25,1,0],[0.5,1,0],[0.75,1,0],[1,1,0],[0,0.25,0],[0,0.5,0],[0,0.75,0],[1,0.25,0],[1,0.5,0],[1,0.75,0]];outlineConnect=0;fontColor=#232F3E;fillColor=#8C4FFF;strokeColor=#ffffff;dashed=0;verticalLabelPosition=bottom;verticalAlign=top;align=center;html=1;fontSize=12;fontStyle=0;aspect=fixed;shape=mxgraph.aws4.resourceIcon;resIcon=mxgraph.aws4.cloudfront;" parent="1" vertex="1">
          <mxGeometry x="60" y="30" width="78" height="78" as="geometry" />
        </mxCell>
        <mxCell id="W8wxUIG6hcebt33dwh8t-42" value="final-user-pool-&amp;lt;ENV&amp;gt;" style="sketch=0;points=[[0,0,0],[0.25,0,0],[0.5,0,0],[0.75,0,0],[1,0,0],[0,1,0],[0.25,1,0],[0.5,1,0],[0.75,1,0],[1,1,0],[0,0.25,0],[0,0.5,0],[0,0.75,0],[1,0.25,0],[1,0.5,0],[1,0.75,0]];outlineConnect=0;fontColor=#232F3E;fillColor=#DD344C;strokeColor=#ffffff;dashed=0;verticalLabelPosition=bottom;verticalAlign=top;align=center;html=1;fontSize=12;fontStyle=0;aspect=fixed;shape=mxgraph.aws4.resourceIcon;resIcon=mxgraph.aws4.cognito;" parent="1" vertex="1">
          <mxGeometry x="690" y="-20" width="78" height="78" as="geometry" />
        </mxCell>
        <mxCell id="yXCmuLq85bu9272WF-M7-14" value="Static web hosting&amp;nbsp;&lt;div&gt;OBJECT Redirect&lt;/div&gt;" style="edgeStyle=orthogonalEdgeStyle;rounded=0;orthogonalLoop=1;jettySize=auto;html=1;" edge="1" parent="1" source="W8wxUIG6hcebt33dwh8t-43" target="yXCmuLq85bu9272WF-M7-13">
          <mxGeometry relative="1" as="geometry" />
        </mxCell>
        <mxCell id="W8wxUIG6hcebt33dwh8t-43" value="Root domain bucket&lt;br&gt;&lt;div&gt;&lt;span style=&quot;background-color: transparent; color: light-dark(rgb(35, 47, 62), rgb(189, 199, 212));&quot;&gt;(POLICY 3)&lt;/span&gt;&lt;/div&gt;" style="sketch=0;points=[[0,0,0],[0.25,0,0],[0.5,0,0],[0.75,0,0],[1,0,0],[0,1,0],[0.25,1,0],[0.5,1,0],[0.75,1,0],[1,1,0],[0,0.25,0],[0,0.5,0],[0,0.75,0],[1,0.25,0],[1,0.5,0],[1,0.75,0]];outlineConnect=0;fontColor=#232F3E;fillColor=#7AA116;strokeColor=#ffffff;dashed=0;verticalLabelPosition=bottom;verticalAlign=top;align=center;html=1;fontSize=12;fontStyle=0;aspect=fixed;shape=mxgraph.aws4.resourceIcon;resIcon=mxgraph.aws4.s3;" parent="1" vertex="1">
          <mxGeometry x="260" y="30" width="78" height="78" as="geometry" />
        </mxCell>
        <mxCell id="W8wxUIG6hcebt33dwh8t-47" value="1.2 Authentication&lt;div&gt;(e.g. GET JWT)&lt;/div&gt;" style="edgeStyle=orthogonalEdgeStyle;rounded=0;orthogonalLoop=1;jettySize=auto;html=1;" parent="1" source="W8wxUIG6hcebt33dwh8t-45" target="W8wxUIG6hcebt33dwh8t-42" edge="1">
          <mxGeometry relative="1" as="geometry" />
        </mxCell>
        <mxCell id="W8wxUIG6hcebt33dwh8t-49" value="1.3 Send Request&lt;div&gt;(Only HTTPS allowed)&lt;/div&gt;" style="edgeStyle=orthogonalEdgeStyle;rounded=0;orthogonalLoop=1;jettySize=auto;html=1;" parent="1" source="W8wxUIG6hcebt33dwh8t-45" target="W8wxUIG6hcebt33dwh8t-28" edge="1">
          <mxGeometry relative="1" as="geometry" />
        </mxCell>
        <mxCell id="MJlRMA11UOelgyCEUxNU-2" value="1.1 Retrieve SPA" style="edgeStyle=orthogonalEdgeStyle;rounded=0;orthogonalLoop=1;jettySize=auto;html=1;" parent="1" source="W8wxUIG6hcebt33dwh8t-45" target="MJlRMA11UOelgyCEUxNU-1" edge="1">
          <mxGeometry relative="1" as="geometry" />
        </mxCell>
        <mxCell id="W8wxUIG6hcebt33dwh8t-45" value="Client" style="sketch=0;outlineConnect=0;fontColor=#232F3E;gradientColor=none;fillColor=#232F3D;strokeColor=none;dashed=0;verticalLabelPosition=bottom;verticalAlign=top;align=center;html=1;fontSize=12;fontStyle=0;aspect=fixed;pointerEvents=1;shape=mxgraph.aws4.client;" parent="1" vertex="1">
          <mxGeometry x="782" y="-230" width="78" height="76" as="geometry" />
        </mxCell>
        <mxCell id="W8wxUIG6hcebt33dwh8t-150" value="Authorize request" style="edgeStyle=orthogonalEdgeStyle;rounded=0;orthogonalLoop=1;jettySize=auto;html=1;" parent="1" source="W8wxUIG6hcebt33dwh8t-48" target="W8wxUIG6hcebt33dwh8t-42" edge="1">
          <mxGeometry relative="1" as="geometry" />
        </mxCell>
        <mxCell id="yXCmuLq85bu9272WF-M7-10" value="Integrates" style="edgeStyle=orthogonalEdgeStyle;rounded=0;orthogonalLoop=1;jettySize=auto;html=1;" edge="1" parent="1" source="W8wxUIG6hcebt33dwh8t-48" target="yXCmuLq85bu9272WF-M7-11">
          <mxGeometry relative="1" as="geometry">
            <mxPoint x="298" y="199" as="targetPoint" />
          </mxGeometry>
        </mxCell>
        <mxCell id="W8wxUIG6hcebt33dwh8t-48" value="Public API Gateway" style="sketch=0;points=[[0,0,0],[0.25,0,0],[0.5,0,0],[0.75,0,0],[1,0,0],[0,1,0],[0.25,1,0],[0.5,1,0],[0.75,1,0],[1,1,0],[0,0.25,0],[0,0.5,0],[0,0.75,0],[1,0.25,0],[1,0.5,0],[1,0.75,0]];outlineConnect=0;fontColor=#232F3E;fillColor=#8C4FFF;strokeColor=#ffffff;dashed=0;verticalLabelPosition=bottom;verticalAlign=top;align=center;html=1;fontSize=12;fontStyle=0;aspect=fixed;shape=mxgraph.aws4.resourceIcon;resIcon=mxgraph.aws4.api_gateway;" parent="1" vertex="1">
          <mxGeometry x="690" y="160" width="78" height="78" as="geometry" />
        </mxCell>
        <mxCell id="W8wxUIG6hcebt33dwh8t-51" value="Associate certificate&lt;div&gt;Uses friendly DNS&lt;/div&gt;" style="edgeStyle=orthogonalEdgeStyle;rounded=0;orthogonalLoop=1;jettySize=auto;html=1;entryX=1;entryY=0.5;entryDx=0;entryDy=0;entryPerimeter=0;" parent="1" source="W8wxUIG6hcebt33dwh8t-23" target="W8wxUIG6hcebt33dwh8t-28" edge="1">
          <mxGeometry x="-0.4945" relative="1" as="geometry">
            <Array as="points">
              <mxPoint x="1653" y="19" />
            </Array>
            <mxPoint as="offset" />
          </mxGeometry>
        </mxCell>
        <mxCell id="W8wxUIG6hcebt33dwh8t-54" style="edgeStyle=orthogonalEdgeStyle;rounded=0;orthogonalLoop=1;jettySize=auto;html=1;" parent="1" source="W8wxUIG6hcebt33dwh8t-52" target="W8wxUIG6hcebt33dwh8t-48" edge="1">
          <mxGeometry relative="1" as="geometry" />
        </mxCell>
        <mxCell id="W8wxUIG6hcebt33dwh8t-52" value="WAF" style="sketch=0;points=[[0,0,0],[0.25,0,0],[0.5,0,0],[0.75,0,0],[1,0,0],[0,1,0],[0.25,1,0],[0.5,1,0],[0.75,1,0],[1,1,0],[0,0.25,0],[0,0.5,0],[0,0.75,0],[1,0.25,0],[1,0.5,0],[1,0.75,0]];outlineConnect=0;fontColor=#232F3E;fillColor=#DD344C;strokeColor=#ffffff;dashed=0;verticalLabelPosition=bottom;verticalAlign=top;align=center;html=1;fontSize=12;fontStyle=0;aspect=fixed;shape=mxgraph.aws4.resourceIcon;resIcon=mxgraph.aws4.waf;" parent="1" vertex="1">
          <mxGeometry x="860" y="160" width="78" height="78" as="geometry" />
        </mxCell>
        <mxCell id="W8wxUIG6hcebt33dwh8t-62" value="Private Subnet APP" style="points=[[0,0],[0.25,0],[0.5,0],[0.75,0],[1,0],[1,0.25],[1,0.5],[1,0.75],[1,1],[0.75,1],[0.5,1],[0.25,1],[0,1],[0,0.75],[0,0.5],[0,0.25]];outlineConnect=0;gradientColor=none;html=1;whiteSpace=wrap;fontSize=12;fontStyle=0;container=0;pointerEvents=0;collapsible=0;recursiveResize=0;shape=mxgraph.aws4.group;grIcon=mxgraph.aws4.group_security_group;grStroke=0;strokeColor=#00A4A6;fillColor=#E6F6F7;verticalAlign=top;align=left;spacingLeft=30;fontColor=#147EBA;dashed=0;" parent="1" vertex="1">
          <mxGeometry x="-380" y="542" width="170" height="688" as="geometry" />
        </mxCell>
        <mxCell id="W8wxUIG6hcebt33dwh8t-117" style="edgeStyle=orthogonalEdgeStyle;rounded=0;orthogonalLoop=1;jettySize=auto;html=1;" parent="1" source="W8wxUIG6hcebt33dwh8t-69" edge="1">
          <mxGeometry relative="1" as="geometry">
            <mxPoint x="-90.94736842105249" y="1128.0985498668242" as="targetPoint" />
            <Array as="points">
              <mxPoint x="-300" y="1040" />
              <mxPoint x="-91" y="1040" />
            </Array>
          </mxGeometry>
        </mxCell>
        <mxCell id="W8wxUIG6hcebt33dwh8t-118" value="Consumes UNIQUE&amp;nbsp;&lt;div&gt;RDS Endpoint&lt;/div&gt;" style="edgeStyle=orthogonalEdgeStyle;rounded=0;orthogonalLoop=1;jettySize=auto;html=1;" parent="1" source="W8wxUIG6hcebt33dwh8t-69" edge="1">
          <mxGeometry x="0.8273" relative="1" as="geometry">
            <mxPoint x="-90.94736842105249" y="1128.0985498668242" as="targetPoint" />
            <Array as="points">
              <mxPoint x="120" y="1040" />
              <mxPoint x="-91" y="1040" />
            </Array>
            <mxPoint y="1" as="offset" />
          </mxGeometry>
        </mxCell>
        <mxCell id="W8wxUIG6hcebt33dwh8t-140" style="edgeStyle=orthogonalEdgeStyle;rounded=0;orthogonalLoop=1;jettySize=auto;html=1;" parent="1" source="W8wxUIG6hcebt33dwh8t-69" target="W8wxUIG6hcebt33dwh8t-64" edge="1">
          <mxGeometry relative="1" as="geometry">
            <Array as="points">
              <mxPoint x="-150" y="528" />
              <mxPoint x="-295" y="528" />
            </Array>
          </mxGeometry>
        </mxCell>
        <mxCell id="W8wxUIG6hcebt33dwh8t-141" value="Outbound Traffic" style="edgeStyle=orthogonalEdgeStyle;rounded=0;orthogonalLoop=1;jettySize=auto;html=1;" parent="1" source="W8wxUIG6hcebt33dwh8t-69" target="W8wxUIG6hcebt33dwh8t-104" edge="1">
          <mxGeometry x="-0.7274" relative="1" as="geometry">
            <Array as="points">
              <mxPoint x="-150" y="528" />
              <mxPoint x="115" y="528" />
            </Array>
            <mxPoint as="offset" />
          </mxGeometry>
        </mxCell>
        <mxCell id="W8wxUIG6hcebt33dwh8t-69" value="Auto Scaling Group&lt;div&gt;M: 2, D:2, Max: 10&lt;/div&gt;&lt;div&gt;&lt;br&gt;&lt;/div&gt;&lt;div&gt;&lt;br&gt;&lt;/div&gt;&lt;div&gt;TASK as Microservices&lt;/div&gt;" style="points=[[0,0],[0.25,0],[0.5,0],[0.75,0],[1,0],[1,0.25],[1,0.5],[1,0.75],[1,1],[0.75,1],[0.5,1],[0.25,1],[0,1],[0,0.75],[0,0.5],[0,0.25]];outlineConnect=0;gradientColor=none;html=1;whiteSpace=wrap;fontSize=12;fontStyle=0;container=0;pointerEvents=0;collapsible=0;recursiveResize=0;shape=mxgraph.aws4.groupCenter;grIcon=mxgraph.aws4.group_auto_scaling_group;grStroke=1;strokeColor=#D86613;fillColor=none;verticalAlign=top;align=center;fontColor=#D86613;dashed=1;spacingTop=25;" parent="1" vertex="1">
          <mxGeometry x="-450" y="570" width="710" height="212" as="geometry" />
        </mxCell>
        <mxCell id="W8wxUIG6hcebt33dwh8t-78" value="Imports Images from" style="edgeStyle=orthogonalEdgeStyle;rounded=0;orthogonalLoop=1;jettySize=auto;html=1;" parent="1" source="W8wxUIG6hcebt33dwh8t-70" target="W8wxUIG6hcebt33dwh8t-71" edge="1">
          <mxGeometry relative="1" as="geometry" />
        </mxCell>
        <mxCell id="W8wxUIG6hcebt33dwh8t-70" value="ECS Fargate" style="sketch=0;points=[[0,0,0],[0.25,0,0],[0.5,0,0],[0.75,0,0],[1,0,0],[0,1,0],[0.25,1,0],[0.5,1,0],[0.75,1,0],[1,1,0],[0,0.25,0],[0,0.5,0],[0,0.75,0],[1,0.25,0],[1,0.5,0],[1,0.75,0]];outlineConnect=0;fontColor=#232F3E;fillColor=#ED7100;strokeColor=#ffffff;dashed=0;verticalLabelPosition=bottom;verticalAlign=top;align=center;html=1;fontSize=12;fontStyle=0;aspect=fixed;shape=mxgraph.aws4.resourceIcon;resIcon=mxgraph.aws4.fargate;" parent="1" vertex="1">
          <mxGeometry x="-134" y="742" width="78" height="78" as="geometry" />
        </mxCell>
        <mxCell id="W8wxUIG6hcebt33dwh8t-71" value="ECR" style="sketch=0;points=[[0,0,0],[0.25,0,0],[0.5,0,0],[0.75,0,0],[1,0,0],[0,1,0],[0.25,1,0],[0.5,1,0],[0.75,1,0],[1,1,0],[0,0.25,0],[0,0.5,0],[0,0.75,0],[1,0.25,0],[1,0.5,0],[1,0.75,0]];outlineConnect=0;fontColor=#232F3E;fillColor=#ED7100;strokeColor=#ffffff;dashed=0;verticalLabelPosition=bottom;verticalAlign=top;align=center;html=1;fontSize=12;fontStyle=0;aspect=fixed;shape=mxgraph.aws4.resourceIcon;resIcon=mxgraph.aws4.ecr;" parent="1" vertex="1">
          <mxGeometry x="-134" y="902" width="78" height="78" as="geometry" />
        </mxCell>
        <mxCell id="W8wxUIG6hcebt33dwh8t-149" value="Inbound Traffic&lt;div&gt;and Requets&lt;/div&gt;" style="edgeStyle=orthogonalEdgeStyle;rounded=0;orthogonalLoop=1;jettySize=auto;html=1;" parent="1" source="W8wxUIG6hcebt33dwh8t-115" target="W8wxUIG6hcebt33dwh8t-69" edge="1">
          <mxGeometry relative="1" as="geometry">
            <Array as="points">
              <mxPoint x="-50" y="199" />
            </Array>
          </mxGeometry>
        </mxCell>
        <mxCell id="W8wxUIG6hcebt33dwh8t-119" value="ms-persons" style="sketch=0;outlineConnect=0;fontColor=#232F3E;gradientColor=none;fillColor=#ED7100;strokeColor=none;dashed=0;verticalLabelPosition=bottom;verticalAlign=top;align=center;html=1;fontSize=12;fontStyle=0;aspect=fixed;pointerEvents=1;shape=mxgraph.aws4.container_2;" parent="1" vertex="1">
          <mxGeometry x="-360" y="590" width="48" height="31" as="geometry" />
        </mxCell>
        <mxCell id="W8wxUIG6hcebt33dwh8t-120" value="ms-orders" style="sketch=0;outlineConnect=0;fontColor=#232F3E;gradientColor=none;fillColor=#ED7100;strokeColor=none;dashed=0;verticalLabelPosition=bottom;verticalAlign=top;align=center;html=1;fontSize=12;fontStyle=0;aspect=fixed;pointerEvents=1;shape=mxgraph.aws4.container_2;" parent="1" vertex="1">
          <mxGeometry x="-280" y="590" width="48" height="31" as="geometry" />
        </mxCell>
        <mxCell id="W8wxUIG6hcebt33dwh8t-121" value="ms-payments" style="sketch=0;outlineConnect=0;fontColor=#232F3E;gradientColor=none;fillColor=#ED7100;strokeColor=none;dashed=0;verticalLabelPosition=bottom;verticalAlign=top;align=center;html=1;fontSize=12;fontStyle=0;aspect=fixed;pointerEvents=1;shape=mxgraph.aws4.container_2;" parent="1" vertex="1">
          <mxGeometry x="-360" y="660.5" width="48" height="31" as="geometry" />
        </mxCell>
        <mxCell id="W8wxUIG6hcebt33dwh8t-122" value="ms-shipment" style="sketch=0;outlineConnect=0;fontColor=#232F3E;gradientColor=none;fillColor=#ED7100;strokeColor=none;dashed=0;verticalLabelPosition=bottom;verticalAlign=top;align=center;html=1;fontSize=12;fontStyle=0;aspect=fixed;pointerEvents=1;shape=mxgraph.aws4.container_2;" parent="1" vertex="1">
          <mxGeometry x="-280" y="660.5" width="48" height="31" as="geometry" />
        </mxCell>
        <mxCell id="W8wxUIG6hcebt33dwh8t-123" value="ms-notifications" style="sketch=0;outlineConnect=0;fontColor=#232F3E;gradientColor=none;fillColor=#ED7100;strokeColor=none;dashed=0;verticalLabelPosition=bottom;verticalAlign=top;align=center;html=1;fontSize=12;fontStyle=0;aspect=fixed;pointerEvents=1;shape=mxgraph.aws4.container_2;" parent="1" vertex="1">
          <mxGeometry x="-319" y="722" width="48" height="31" as="geometry" />
        </mxCell>
        <mxCell id="W8wxUIG6hcebt33dwh8t-124" value="ms-persons" style="sketch=0;outlineConnect=0;fontColor=#232F3E;gradientColor=none;fillColor=#ED7100;strokeColor=none;dashed=0;verticalLabelPosition=bottom;verticalAlign=top;align=center;html=1;fontSize=12;fontStyle=0;aspect=fixed;pointerEvents=1;shape=mxgraph.aws4.container_2;" parent="1" vertex="1">
          <mxGeometry x="56" y="585" width="48" height="31" as="geometry" />
        </mxCell>
        <mxCell id="W8wxUIG6hcebt33dwh8t-125" value="ms-orders" style="sketch=0;outlineConnect=0;fontColor=#232F3E;gradientColor=none;fillColor=#ED7100;strokeColor=none;dashed=0;verticalLabelPosition=bottom;verticalAlign=top;align=center;html=1;fontSize=12;fontStyle=0;aspect=fixed;pointerEvents=1;shape=mxgraph.aws4.container_2;" parent="1" vertex="1">
          <mxGeometry x="136" y="585" width="48" height="31" as="geometry" />
        </mxCell>
        <mxCell id="W8wxUIG6hcebt33dwh8t-126" value="ms-payments" style="sketch=0;outlineConnect=0;fontColor=#232F3E;gradientColor=none;fillColor=#ED7100;strokeColor=none;dashed=0;verticalLabelPosition=bottom;verticalAlign=top;align=center;html=1;fontSize=12;fontStyle=0;aspect=fixed;pointerEvents=1;shape=mxgraph.aws4.container_2;" parent="1" vertex="1">
          <mxGeometry x="56" y="655.5" width="48" height="31" as="geometry" />
        </mxCell>
        <mxCell id="W8wxUIG6hcebt33dwh8t-127" value="ms-shipment" style="sketch=0;outlineConnect=0;fontColor=#232F3E;gradientColor=none;fillColor=#ED7100;strokeColor=none;dashed=0;verticalLabelPosition=bottom;verticalAlign=top;align=center;html=1;fontSize=12;fontStyle=0;aspect=fixed;pointerEvents=1;shape=mxgraph.aws4.container_2;" parent="1" vertex="1">
          <mxGeometry x="136" y="655.5" width="48" height="31" as="geometry" />
        </mxCell>
        <mxCell id="W8wxUIG6hcebt33dwh8t-136" value="Do subscriptions,&lt;div&gt;Send notifications,&amp;nbsp;&lt;/div&gt;&lt;div&gt;and so on&lt;/div&gt;" style="edgeStyle=orthogonalEdgeStyle;rounded=0;orthogonalLoop=1;jettySize=auto;html=1;" parent="1" source="W8wxUIG6hcebt33dwh8t-128" target="W8wxUIG6hcebt33dwh8t-2" edge="1">
          <mxGeometry relative="1" as="geometry">
            <mxPoint x="121.01754385964887" y="692.090301155491" as="sourcePoint" />
            <mxPoint x="720" y="714" as="targetPoint" />
            <Array as="points">
              <mxPoint x="121" y="690" />
            </Array>
          </mxGeometry>
        </mxCell>
        <mxCell id="W8wxUIG6hcebt33dwh8t-128" value="ms-notifications" style="sketch=0;outlineConnect=0;fontColor=#232F3E;gradientColor=none;fillColor=#ED7100;strokeColor=none;dashed=0;verticalLabelPosition=bottom;verticalAlign=top;align=center;html=1;fontSize=12;fontStyle=0;aspect=fixed;pointerEvents=1;shape=mxgraph.aws4.container_2;" parent="1" vertex="1">
          <mxGeometry x="97" y="722" width="48" height="31" as="geometry" />
        </mxCell>
        <mxCell id="W8wxUIG6hcebt33dwh8t-134" style="edgeStyle=orthogonalEdgeStyle;rounded=0;orthogonalLoop=1;jettySize=auto;html=1;" parent="1" source="W8wxUIG6hcebt33dwh8t-133" target="W8wxUIG6hcebt33dwh8t-66" edge="1">
          <mxGeometry relative="1" as="geometry" />
        </mxCell>
        <mxCell id="W8wxUIG6hcebt33dwh8t-133" value="RDS Multi-AZ DB Cluster" style="sketch=0;outlineConnect=0;fontColor=#232F3E;gradientColor=none;fillColor=#C925D1;strokeColor=none;dashed=0;verticalLabelPosition=bottom;verticalAlign=top;align=center;html=1;fontSize=12;fontStyle=0;aspect=fixed;pointerEvents=1;shape=mxgraph.aws4.rds_multi_az_db_cluster;" parent="1" vertex="1">
          <mxGeometry x="-129.5" y="1118" width="78" height="78" as="geometry" />
        </mxCell>
        <mxCell id="W8wxUIG6hcebt33dwh8t-135" style="edgeStyle=orthogonalEdgeStyle;rounded=0;orthogonalLoop=1;jettySize=auto;html=1;entryX=0;entryY=0.5;entryDx=0;entryDy=0;entryPerimeter=0;" parent="1" source="W8wxUIG6hcebt33dwh8t-133" target="W8wxUIG6hcebt33dwh8t-109" edge="1">
          <mxGeometry relative="1" as="geometry" />
        </mxCell>
        <mxCell id="W8wxUIG6hcebt33dwh8t-138" value="VPC Region 1" style="points=[[0,0],[0.25,0],[0.5,0],[0.75,0],[1,0],[1,0.25],[1,0.5],[1,0.75],[1,1],[0.75,1],[0.5,1],[0.25,1],[0,1],[0,0.75],[0,0.5],[0,0.25]];outlineConnect=0;gradientColor=none;html=1;whiteSpace=wrap;fontSize=12;fontStyle=0;container=0;pointerEvents=0;collapsible=0;recursiveResize=0;shape=mxgraph.aws4.group;grIcon=mxgraph.aws4.group_vpc2;strokeColor=#8C4FFF;fillColor=none;verticalAlign=top;align=left;spacingLeft=30;fontColor=#AAB7B8;dashed=0;" parent="1" vertex="1">
          <mxGeometry x="-488" y="130" width="938" height="1280" as="geometry" />
        </mxCell>
        <mxCell id="W8wxUIG6hcebt33dwh8t-139" value="Internet" style="image;aspect=fixed;perimeter=ellipsePerimeter;html=1;align=center;shadow=0;dashed=0;spacingTop=3;image=img/lib/active_directory/internet_cloud.svg;" parent="1" vertex="1">
          <mxGeometry x="-348.77" y="-240" width="107.54" height="67.75" as="geometry" />
        </mxCell>
        <mxCell id="W8wxUIG6hcebt33dwh8t-104" value="" style="outlineConnect=0;dashed=0;verticalLabelPosition=bottom;verticalAlign=top;align=center;html=1;shape=mxgraph.aws3.vpc_nat_gateway;fillColor=#F58536;gradientColor=none;" parent="1" vertex="1">
          <mxGeometry x="80.5" y="414.5" width="69" height="72" as="geometry" />
        </mxCell>
        <mxCell id="W8wxUIG6hcebt33dwh8t-144" style="edgeStyle=orthogonalEdgeStyle;rounded=0;orthogonalLoop=1;jettySize=auto;html=1;entryX=0.5;entryY=1;entryDx=0;entryDy=0;entryPerimeter=0;" parent="1" source="W8wxUIG6hcebt33dwh8t-64" target="W8wxUIG6hcebt33dwh8t-142" edge="1">
          <mxGeometry relative="1" as="geometry" />
        </mxCell>
        <mxCell id="W8wxUIG6hcebt33dwh8t-145" style="edgeStyle=orthogonalEdgeStyle;rounded=0;orthogonalLoop=1;jettySize=auto;html=1;entryX=0.5;entryY=1;entryDx=0;entryDy=0;" parent="1" source="W8wxUIG6hcebt33dwh8t-142" target="W8wxUIG6hcebt33dwh8t-139" edge="1">
          <mxGeometry relative="1" as="geometry">
            <Array as="points">
              <mxPoint x="-295" y="-162" />
            </Array>
          </mxGeometry>
        </mxCell>
        <mxCell id="W8wxUIG6hcebt33dwh8t-142" value="Internet Gateway" style="outlineConnect=0;dashed=0;verticalLabelPosition=bottom;verticalAlign=top;align=center;html=1;shape=mxgraph.aws3.internet_gateway;fillColor=#F58534;gradientColor=none;" parent="1" vertex="1">
          <mxGeometry x="-329.5" y="91" width="69" height="72" as="geometry" />
        </mxCell>
        <mxCell id="W8wxUIG6hcebt33dwh8t-115" value="Internal Application&amp;nbsp;&lt;div&gt;Load Balancer&lt;div&gt;(Layer 7, Port X)&lt;/div&gt;&lt;/div&gt;" style="outlineConnect=0;dashed=0;verticalLabelPosition=bottom;verticalAlign=top;align=center;html=1;shape=mxgraph.aws3.application_load_balancer;fillColor=#F58534;gradientColor=none;" parent="1" vertex="1">
          <mxGeometry x="-80" y="163" width="69" height="72" as="geometry" />
        </mxCell>
        <mxCell id="W8wxUIG6hcebt33dwh8t-64" value="" style="outlineConnect=0;dashed=0;verticalLabelPosition=bottom;verticalAlign=top;align=center;html=1;shape=mxgraph.aws3.vpc_nat_gateway;fillColor=#F58536;gradientColor=none;" parent="1" vertex="1">
          <mxGeometry x="-329.5" y="414.5" width="69" height="72" as="geometry" />
        </mxCell>
        <mxCell id="W8wxUIG6hcebt33dwh8t-152" value="task-ecs-iam-role-&amp;lt;env&amp;gt;&lt;br&gt;&lt;div&gt;&lt;br&gt;&lt;/div&gt;&lt;div&gt;sns:*&lt;/div&gt;&lt;div&gt;s3:*&lt;/div&gt;" style="sketch=0;outlineConnect=0;fontColor=#232F3E;gradientColor=none;fillColor=#DD344C;strokeColor=none;dashed=0;verticalLabelPosition=bottom;verticalAlign=top;align=center;html=1;fontSize=12;fontStyle=0;aspect=fixed;pointerEvents=1;shape=mxgraph.aws4.role;" parent="1" vertex="1">
          <mxGeometry x="228.43" y="760" width="73.57" height="41.5" as="geometry" />
        </mxCell>
        <mxCell id="W8wxUIG6hcebt33dwh8t-154" value="1.1 Pull Messages" style="edgeStyle=orthogonalEdgeStyle;rounded=0;orthogonalLoop=1;jettySize=auto;html=1;entryX=0.5;entryY=1;entryDx=0;entryDy=0;entryPerimeter=0;" parent="1" source="W8wxUIG6hcebt33dwh8t-128" target="W8wxUIG6hcebt33dwh8t-15" edge="1">
          <mxGeometry x="-0.2983" relative="1" as="geometry">
            <Array as="points">
              <mxPoint x="678" y="730" />
              <mxPoint x="678" y="960" />
              <mxPoint x="1250" y="960" />
            </Array>
            <mxPoint as="offset" />
          </mxGeometry>
        </mxCell>
        <mxCell id="W8wxUIG6hcebt33dwh8t-155" value="1.2 Send Notification" style="edgeStyle=orthogonalEdgeStyle;rounded=0;orthogonalLoop=1;jettySize=auto;html=1;entryX=0.5;entryY=1;entryDx=0;entryDy=0;entryPerimeter=0;" parent="1" source="W8wxUIG6hcebt33dwh8t-128" target="W8wxUIG6hcebt33dwh8t-23" edge="1">
          <mxGeometry relative="1" as="geometry">
            <Array as="points">
              <mxPoint x="470" y="740" />
              <mxPoint x="470" y="1140" />
              <mxPoint x="1653" y="1140" />
            </Array>
          </mxGeometry>
        </mxCell>
        <mxCell id="W8wxUIG6hcebt33dwh8t-156" value="VPC Region 2" style="points=[[0,0],[0.25,0],[0.5,0],[0.75,0],[1,0],[1,0.25],[1,0.5],[1,0.75],[1,1],[0.75,1],[0.5,1],[0.25,1],[0,1],[0,0.75],[0,0.5],[0,0.25]];outlineConnect=0;gradientColor=none;html=1;whiteSpace=wrap;fontSize=12;fontStyle=0;container=0;pointerEvents=0;collapsible=0;recursiveResize=0;shape=mxgraph.aws4.group;grIcon=mxgraph.aws4.group_vpc2;strokeColor=#8C4FFF;fillColor=none;verticalAlign=top;align=left;spacingLeft=30;fontColor=#AAB7B8;dashed=0;" parent="1" vertex="1">
          <mxGeometry x="1079" y="249" width="260" height="165.5" as="geometry" />
        </mxCell>
        <mxCell id="W8wxUIG6hcebt33dwh8t-158" style="edgeStyle=orthogonalEdgeStyle;rounded=0;orthogonalLoop=1;jettySize=auto;html=1;entryX=0.5;entryY=0;entryDx=0;entryDy=0;" parent="1" source="W8wxUIG6hcebt33dwh8t-157" target="W8wxUIG6hcebt33dwh8t-156" edge="1">
          <mxGeometry relative="1" as="geometry" />
        </mxCell>
        <mxCell id="W8wxUIG6hcebt33dwh8t-157" value="Private API Gateway" style="sketch=0;points=[[0,0,0],[0.25,0,0],[0.5,0,0],[0.75,0,0],[1,0,0],[0,1,0],[0.25,1,0],[0.5,1,0],[0.75,1,0],[1,1,0],[0,0.25,0],[0,0.5,0],[0,0.75,0],[1,0.25,0],[1,0.5,0],[1,0.75,0]];outlineConnect=0;fontColor=#232F3E;fillColor=#8C4FFF;strokeColor=#ffffff;dashed=0;verticalLabelPosition=bottom;verticalAlign=top;align=center;html=1;fontSize=12;fontStyle=0;aspect=fixed;shape=mxgraph.aws4.resourceIcon;resIcon=mxgraph.aws4.api_gateway;" parent="1" vertex="1">
          <mxGeometry x="1170" y="80" width="78" height="78" as="geometry" />
        </mxCell>
        <mxCell id="W8wxUIG6hcebt33dwh8t-159" value="&lt;h1 style=&quot;margin-top: 0px;&quot;&gt;Active-Passive Failover&lt;/h1&gt;&lt;div&gt;Infraestructura de la VPC original, pero con los recursos MINIMOS configurados, con autoescalado. Estrategia Warm Standby.&lt;/div&gt;" style="text;html=1;whiteSpace=wrap;overflow=hidden;rounded=0;" parent="1" vertex="1">
          <mxGeometry x="1084" y="274.5" width="250" height="140" as="geometry" />
        </mxCell>
        <mxCell id="MJlRMA11UOelgyCEUxNU-3" style="edgeStyle=orthogonalEdgeStyle;rounded=0;orthogonalLoop=1;jettySize=auto;html=1;" parent="1" source="MJlRMA11UOelgyCEUxNU-1" target="W8wxUIG6hcebt33dwh8t-41" edge="1">
          <mxGeometry relative="1" as="geometry" />
        </mxCell>
        <mxCell id="MJlRMA11UOelgyCEUxNU-1" value="WAF" style="sketch=0;points=[[0,0,0],[0.25,0,0],[0.5,0,0],[0.75,0,0],[1,0,0],[0,1,0],[0.25,1,0],[0.5,1,0],[0.75,1,0],[1,1,0],[0,0.25,0],[0,0.5,0],[0,0.75,0],[1,0.25,0],[1,0.5,0],[1,0.75,0]];outlineConnect=0;fontColor=#232F3E;fillColor=#DD344C;strokeColor=#ffffff;dashed=0;verticalLabelPosition=bottom;verticalAlign=top;align=center;html=1;fontSize=12;fontStyle=0;aspect=fixed;shape=mxgraph.aws4.resourceIcon;resIcon=mxgraph.aws4.waf;" parent="1" vertex="1">
          <mxGeometry x="60" y="-90" width="78" height="78" as="geometry" />
        </mxCell>
        <mxCell id="yXCmuLq85bu9272WF-M7-6" style="edgeStyle=orthogonalEdgeStyle;rounded=0;orthogonalLoop=1;jettySize=auto;html=1;" edge="1" parent="1" source="yXCmuLq85bu9272WF-M7-2" target="W8wxUIG6hcebt33dwh8t-11">
          <mxGeometry relative="1" as="geometry" />
        </mxCell>
        <mxCell id="yXCmuLq85bu9272WF-M7-2" value="VPC Endpoint for S3" style="sketch=0;outlineConnect=0;fontColor=#232F3E;gradientColor=none;fillColor=#E7157B;strokeColor=none;dashed=0;verticalLabelPosition=bottom;verticalAlign=top;align=center;html=1;fontSize=12;fontStyle=0;aspect=fixed;pointerEvents=1;shape=mxgraph.aws4.endpoint;" vertex="1" parent="1">
          <mxGeometry x="410" y="300" width="78" height="78" as="geometry" />
        </mxCell>
        <mxCell id="W8wxUIG6hcebt33dwh8t-66" value="Master DB" style="outlineConnect=0;dashed=0;verticalLabelPosition=bottom;verticalAlign=top;align=center;html=1;shape=mxgraph.aws3.rds_db_instance;fillColor=#2E73B8;gradientColor=none;" parent="1" vertex="1">
          <mxGeometry x="-314.75" y="1134" width="49.5" height="66" as="geometry" />
        </mxCell>
        <mxCell id="W8wxUIG6hcebt33dwh8t-109" value="Read Replica" style="outlineConnect=0;dashed=0;verticalLabelPosition=bottom;verticalAlign=top;align=center;html=1;shape=mxgraph.aws3.rds_db_instance_read_replica;fillColor=#2E73B8;gradientColor=none;" parent="1" vertex="1">
          <mxGeometry x="95.25" y="1133" width="49.5" height="66" as="geometry" />
        </mxCell>
        <mxCell id="yXCmuLq85bu9272WF-M7-12" style="edgeStyle=orthogonalEdgeStyle;rounded=0;orthogonalLoop=1;jettySize=auto;html=1;" edge="1" parent="1" source="yXCmuLq85bu9272WF-M7-11" target="W8wxUIG6hcebt33dwh8t-115">
          <mxGeometry relative="1" as="geometry" />
        </mxCell>
        <mxCell id="yXCmuLq85bu9272WF-M7-11" value="VPC Link" style="sketch=0;outlineConnect=0;fontColor=#232F3E;gradientColor=none;fillColor=#8C4FFF;strokeColor=none;dashed=0;verticalLabelPosition=bottom;verticalAlign=top;align=center;html=1;fontSize=12;fontStyle=0;aspect=fixed;pointerEvents=1;shape=mxgraph.aws4.endpoints;" vertex="1" parent="1">
          <mxGeometry x="414" y="160" width="78" height="78" as="geometry" />
        </mxCell>
        <mxCell id="yXCmuLq85bu9272WF-M7-13" value="S3 Static Content&amp;nbsp;&lt;div&gt;&lt;span style=&quot;background-color: transparent; color: light-dark(rgb(35, 47, 62), rgb(189, 199, 212));&quot;&gt;(Single Page Application)&lt;/span&gt;&lt;/div&gt;&lt;div&gt;&lt;span style=&quot;background-color: transparent; color: light-dark(rgb(35, 47, 62), rgb(189, 199, 212));&quot;&gt;(POLICY 3)&lt;/span&gt;&lt;/div&gt;" style="sketch=0;points=[[0,0,0],[0.25,0,0],[0.5,0,0],[0.75,0,0],[1,0,0],[0,1,0],[0.25,1,0],[0.5,1,0],[0.75,1,0],[1,1,0],[0,0.25,0],[0,0.5,0],[0,0.75,0],[1,0.25,0],[1,0.5,0],[1,0.75,0]];outlineConnect=0;fontColor=#232F3E;fillColor=#7AA116;strokeColor=#ffffff;dashed=0;verticalLabelPosition=bottom;verticalAlign=top;align=center;html=1;fontSize=12;fontStyle=0;aspect=fixed;shape=mxgraph.aws4.resourceIcon;resIcon=mxgraph.aws4.s3;" vertex="1" parent="1">
          <mxGeometry x="502" y="30" width="78" height="78" as="geometry" />
        </mxCell>
      </root>
    </mxGraphModel>
  </diagram>
</mxfile>
